<svg width="66" height="46" viewBox="0 0 66 46" fill="none" xmlns="http://www.w3.org/2000/svg">
<path d="M34.16 21.32C34.16 21.9067 33.86 22.2 33.26 22.2C33.06 22.2 32.8933 22.1533 32.76 22.06C32.6267 21.9667 32.48 21.8267 32.32 21.64C31.92 21.2 31.5733 20.98 31.28 20.98C30.8933 20.98 30.5133 21.0933 30.14 21.32C29.78 21.5467 29.4867 21.8667 29.26 22.28C29.0333 22.6933 28.92 23.1533 28.92 23.66C28.92 24.22 29.0267 24.6867 29.24 25.06C29.4667 25.4333 29.8133 25.7533 30.28 26.02C30.4533 26.1133 30.6533 26.1867 30.88 26.24C31.12 26.2933 31.3267 26.32 31.5 26.32C31.8867 26.32 32.3733 26.1667 32.96 25.86C33.1733 25.7533 33.3533 25.6733 33.5 25.62C33.6467 25.5667 33.8 25.54 33.96 25.54C34.1067 25.54 34.2733 25.6067 34.46 25.74C34.6467 25.8733 34.74 26.04 34.74 26.24C34.74 26.64 34.5533 26.98 34.18 27.26C33.8067 27.5267 33.3467 27.7333 32.8 27.88C32.2667 28.0133 31.7533 28.08 31.26 28.08C30.4733 28.08 29.74 27.9 29.06 27.54C28.3933 27.18 27.86 26.6867 27.46 26.06C27.06 25.42 26.86 24.7 26.86 23.9C26.86 23.0467 27.0533 22.2667 27.44 21.56C27.8267 20.8533 28.3467 20.3 29 19.9C29.6533 19.5 30.3667 19.3 31.14 19.3C31.58 19.3 32.0333 19.38 32.5 19.54C32.9667 19.7 33.36 19.9333 33.68 20.24C34 20.5467 34.16 20.9067 34.16 21.32ZM44.355 21.58C44.4617 21.7667 44.5483 22.04 44.615 22.4C44.6817 22.7467 44.715 23.06 44.715 23.34C44.715 23.86 44.6017 24.6 44.375 25.56C43.455 27.24 42.095 28.08 40.295 28.08C39.6283 28.08 38.9483 27.86 38.255 27.42C37.5617 26.98 37.0817 26.4733 36.815 25.9C36.455 24.7533 36.275 24.0267 36.275 23.72C36.275 23.1867 36.3883 22.62 36.615 22.02C36.855 21.42 37.155 20.9 37.515 20.46C37.7417 20.1533 38.1483 19.8933 38.735 19.68C39.3217 19.4533 39.855 19.34 40.335 19.34C41.2683 19.34 42.0617 19.52 42.715 19.88C43.3683 20.2267 43.915 20.7933 44.355 21.58ZM42.615 24.8C42.6817 24.6267 42.715 24.18 42.715 23.46C42.715 23.0733 42.6417 22.6933 42.495 22.32C42.3617 21.9467 42.1617 21.6267 41.895 21.36C41.8683 21.3333 41.795 21.2933 41.675 21.24C41.555 21.1733 41.3883 21.1133 41.175 21.06C40.975 20.9933 40.7417 20.96 40.475 20.96C39.7283 20.96 39.1817 21.26 38.835 21.86C38.4883 22.46 38.315 23.14 38.315 23.9C38.315 24.0333 38.3483 24.2867 38.415 24.66C38.495 25.0333 38.5617 25.2667 38.615 25.36C38.655 25.4533 38.755 25.5867 38.915 25.76C39.0883 25.92 39.295 26.0667 39.535 26.2C39.7883 26.32 40.0483 26.38 40.315 26.38C40.915 26.38 41.395 26.24 41.755 25.96C42.115 25.6667 42.4017 25.28 42.615 24.8ZM54.9494 27.9C54.6694 27.9 54.4027 27.82 54.1494 27.66C53.9094 27.4867 53.696 27.3067 53.5094 27.12C53.3227 26.92 53.196 26.7867 53.1294 26.72C52.8494 27.12 52.4427 27.4467 51.9094 27.7C51.376 27.9533 50.8627 28.08 50.3694 28.08C49.6094 28.08 48.936 27.92 48.3494 27.6C47.7627 27.28 47.3094 26.8467 46.9894 26.3C46.6694 25.74 46.5094 25.12 46.5094 24.44C46.5094 23.8 46.5827 23.1867 46.7294 22.6C46.8894 22 47.1027 21.5 47.3694 21.1C47.7294 20.5933 48.2094 20.1933 48.8094 19.9C49.4227 19.6067 50.0294 19.46 50.6294 19.46C50.9894 19.46 51.3294 19.5267 51.6494 19.66C51.9694 19.7933 52.2494 19.96 52.4894 20.16C52.4894 19.28 52.4827 18.7267 52.4694 18.5V18.06C52.4694 16.8067 52.5494 15.8933 52.7094 15.32C52.856 14.76 53.216 14.48 53.7894 14.48C54.096 14.48 54.3227 14.5467 54.4694 14.68C54.616 14.8133 54.6894 15.0667 54.6894 15.44C54.6894 15.5733 54.656 15.94 54.5894 16.54C54.4427 18.0333 54.3694 19.5267 54.3694 21.02C54.3694 22.2733 54.3894 23.2067 54.4294 23.82C54.4827 24.42 54.5827 24.9 54.7294 25.26C54.8894 25.62 55.136 25.94 55.4694 26.22C55.6694 26.38 55.8094 26.5133 55.8894 26.62C55.9827 26.7267 56.0294 26.8667 56.0294 27.04C56.0294 27.2533 55.9227 27.4533 55.7094 27.64C55.496 27.8133 55.2427 27.9 54.9494 27.9ZM50.3094 26.46C51.016 26.46 51.536 26.24 51.8694 25.8C52.216 25.3467 52.3894 24.7733 52.3894 24.08L52.3694 22.96C52.356 22.7467 52.3494 22.46 52.3494 22.1C51.856 21.5133 51.3227 21.22 50.7494 21.22C50.3627 21.22 49.996 21.32 49.6494 21.52C49.316 21.72 49.0427 22.0133 48.8294 22.4C48.6027 22.84 48.4894 23.5067 48.4894 24.4C48.4894 25.0133 48.6694 25.5133 49.0294 25.9C49.3894 26.2733 49.816 26.46 50.3094 26.46ZM57.1725 23.42C57.1725 22.6067 57.3525 21.9333 57.7125 21.4C58.0725 20.8533 58.5725 20.34 59.2125 19.86C59.3992 19.7267 59.7125 19.6133 60.1525 19.52C60.5925 19.4133 60.9792 19.36 61.3125 19.36C61.7125 19.36 62.1325 19.4467 62.5725 19.62C63.0258 19.78 63.3925 19.9667 63.6725 20.18C64.1658 20.54 64.5058 20.96 64.6925 21.44C64.8792 21.9067 64.9725 22.4667 64.9725 23.12C64.9725 23.4 64.8125 23.6733 64.4925 23.94C64.1858 24.1933 63.8525 24.32 63.4925 24.32L62.7325 24.3C62.3458 24.3 61.7925 24.3133 61.0725 24.34L60.6525 24.36C60.3592 24.3867 60.1392 24.4 59.9925 24.4C59.7792 24.4 59.4858 24.3733 59.1125 24.32C59.1658 24.9467 59.3992 25.44 59.8125 25.8C60.2258 26.1467 60.6725 26.32 61.1525 26.32C61.9925 26.32 62.5792 26.1533 62.9125 25.82C63.1925 25.62 63.3792 25.4933 63.4725 25.44C63.5658 25.3867 63.7125 25.36 63.9125 25.36C64.1258 25.36 64.3125 25.46 64.4725 25.66C64.6325 25.86 64.7125 26.06 64.7125 26.26C64.7125 26.4867 64.5725 26.72 64.2925 26.96C64.0258 27.1867 63.6592 27.4267 63.1925 27.68C62.9392 27.7867 62.5925 27.88 62.1525 27.96C61.7125 28.04 61.3458 28.08 61.0525 28.08C60.5858 28.08 60.0658 27.9467 59.4925 27.68C58.9192 27.4 58.4925 27.0933 58.2125 26.76C57.9325 26.4267 57.6858 25.9533 57.4725 25.34C57.2725 24.7267 57.1725 24.0867 57.1725 23.42ZM61.1525 22.88C62.0992 22.88 62.7925 22.8467 63.2325 22.78C63.2058 22.3933 63.0858 22.08 62.8725 21.84C62.6592 21.5867 62.3658 21.3733 61.9925 21.2C61.8725 21.1467 61.7658 21.1067 61.6725 21.08C61.5792 21.0533 61.4725 21.04 61.3525 21.04C60.7392 21.04 60.2192 21.2067 59.7925 21.54C59.3792 21.8733 59.1325 22.3 59.0525 22.82C59.7192 22.86 60.4192 22.88 61.1525 22.88Z" fill="white"/>
<path d="M10.5243 26.4813H22.1269M47.6998 10.5348V7C47.6998 4.23858 45.4612 2 42.6998 2H6.99999C4.23857 2 2 4.23858 2 7V39C2 41.7614 4.23858 44 7 44H42.6998C45.4612 44 47.6998 41.7614 47.6998 39V35.2406M10.5243 10.5348H40.3594M10.5243 18.6203H22.1269M10.5243 35.2406H40.3594" stroke="white" stroke-width="4" stroke-linecap="round"/>
</svg>
<svg width="66" height="46" viewBox="0 0 66 46" fill="none" xmlns="http://www.w3.org/2000/svg">
<path d="M34.16 21.32C34.16 21.9067 33.86 22.2 33.26 22.2C33.06 22.2 32.8933 22.1533 32.76 22.06C32.6267 21.9667 32.48 21.8267 32.32 21.64C31.92 21.2 31.5733 20.98 31.28 20.98C30.8933 20.98 30.5133 21.0933 30.14 21.32C29.78 21.5467 29.4867 21.8667 29.26 22.28C29.0333 22.6933 28.92 23.1533 28.92 23.66C28.92 24.22 29.0267 24.6867 29.24 25.06C29.4667 25.4333 29.8133 25.7533 30.28 26.02C30.4533 26.1133 30.6533 26.1867 30.88 26.24C31.12 26.2933 31.3267 26.32 31.5 26.32C31.8867 26.32 32.3733 26.1667 32.96 25.86C33.1733 25.7533 33.3533 25.6733 33.5 25.62C33.6467 25.5667 33.8 25.54 33.96 25.54C34.1067 25.54 34.2733 25.6067 34.46 25.74C34.6467 25.8733 34.74 26.04 34.74 26.24C34.74 26.64 34.5533 26.98 34.18 27.26C33.8067 27.5267 33.3467 27.7333 32.8 27.88C32.2667 28.0133 31.7533 28.08 31.26 28.08C30.4733 28.08 29.74 27.9 29.06 27.54C28.3933 27.18 27.86 26.6867 27.46 26.06C27.06 25.42 26.86 24.7 26.86 23.9C26.86 23.0467 27.0533 22.2667 27.44 21.56C27.8267 20.8533 28.3467 20.3 29 19.9C29.6533 19.5 30.3667 19.3 31.14 19.3C31.58 19.3 32.0333 19.38 32.5 19.54C32.9667 19.7 33.36 19.9333 33.68 20.24C34 20.5467 34.16 20.9067 34.16 21.32ZM44.355 21.58C44.4617 21.7667 44.5483 22.04 44.615 22.4C44.6817 22.7467 44.715 23.06 44.715 23.34C44.715 23.86 44.6017 24.6 44.375 25.56C43.455 27.24 42.095 28.08 40.295 28.08C39.6283 28.08 38.9483 27.86 38.255 27.42C37.5617 26.98 37.0817 26.4733 36.815 25.9C36.455 24.7533 36.275 24.0267 36.275 23.72C36.275 23.1867 36.3883 22.62 36.615 22.02C36.855 21.42 37.155 20.9 37.515 20.46C37.7417 20.1533 38.1483 19.8933 38.735 19.68C39.3217 19.4533 39.855 19.34 40.335 19.34C41.2683 19.34 42.0617 19.52 42.715 19.88C43.3683 20.2267 43.915 20.7933 44.355 21.58ZM42.615 24.8C42.6817 24.6267 42.715 24.18 42.715 23.46C42.715 23.0733 42.6417 22.6933 42.495 22.32C42.3617 21.9467 42.1617 21.6267 41.895 21.36C41.8683 21.3333 41.795 21.2933 41.675 21.24C41.555 21.1733 41.3883 21.1133 41.175 21.06C40.975 20.9933 40.7417 20.96 40.475 20.96C39.7283 20.96 39.1817 21.26 38.835 21.86C38.4883 22.46 38.315 23.14 38.315 23.9C38.315 24.0333 38.3483 24.2867 38.415 24.66C38.495 25.0333 38.5617 25.2667 38.615 25.36C38.655 25.4533 38.755 25.5867 38.915 25.76C39.0883 25.92 39.295 26.0667 39.535 26.2C39.7883 26.32 40.0483 26.38 40.315 26.38C40.915 26.38 41.395 26.24 41.755 25.96C42.115 25.6667 42.4017 25.28 42.615 24.8ZM54.9494 27.9C54.6694 27.9 54.4027 27.82 54.1494 27.66C53.9094 27.4867 53.696 27.3067 53.5094 27.12C53.3227 26.92 53.196 26.7867 53.1294 26.72C52.8494 27.12 52.4427 27.4467 51.9094 27.7C51.376 27.9533 50.8627 28.08 50.3694 28.08C49.6094 28.08 48.936 27.92 48.3494 27.6C47.7627 27.28 47.3094 26.8467 46.9894 26.3C46.6694 25.74 46.5094 25.12 46.5094 24.44C46.5094 23.8 46.5827 23.1867 46.7294 22.6C46.8894 22 47.1027 21.5 47.3694 21.1C47.7294 20.5933 48.2094 20.1933 48.8094 19.9C49.4227 19.6067 50.0294 19.46 50.6294 19.46C50.9894 19.46 51.3294 19.5267 51.6494 19.66C51.9694 19.7933 52.2494 19.96 52.4894 20.16C52.4894 19.28 52.4827 18.7267 52.4694 18.5V18.06C52.4694 16.8067 52.5494 15.8933 52.7094 15.32C52.856 14.76 53.216 14.48 53.7894 14.48C54.096 14.48 54.3227 14.5467 54.4694 14.68C54.616 14.8133 54.6894 15.0667 54.6894 15.44C54.6894 15.5733 54.656 15.94 54.5894 16.54C54.4427 18.0333 54.3694 19.5267 54.3694 21.02C54.3694 22.2733 54.3894 23.2067 54.4294 23.82C54.4827 24.42 54.5827 24.9 54.7294 25.26C54.8894 25.62 55.136 25.94 55.4694 26.22C55.6694 26.38 55.8094 26.5133 55.8894 26.62C55.9827 26.7267 56.0294 26.8667 56.0294 27.04C56.0294 27.2533 55.9227 27.4533 55.7094 27.64C55.496 27.8133 55.2427 27.9 54.9494 27.9ZM50.3094 26.46C51.016 26.46 51.536 26.24 51.8694 25.8C52.216 25.3467 52.3894 24.7733 52.3894 24.08L52.3694 22.96C52.356 22.7467 52.3494 22.46 52.3494 22.1C51.856 21.5133 51.3227 21.22 50.7494 21.22C50.3627 21.22 49.996 21.32 49.6494 21.52C49.316 21.72 49.0427 22.0133 48.8294 22.4C48.6027 22.84 48.4894 23.5067 48.4894 24.4C48.4894 25.0133 48.6694 25.5133 49.0294 25.9C49.3894 26.2733 49.816 26.46 50.3094 26.46ZM57.1725 23.42C57.1725 22.6067 57.3525 21.9333 57.7125 21.4C58.0725 20.8533 58.5725 20.34 59.2125 19.86C59.3992 19.7267 59.7125 19.6133 60.1525 19.52C60.5925 19.4133 60.9792 19.36 61.3125 19.36C61.7125 19.36 62.1325 19.4467 62.5725 19.62C63.0258 19.78 63.3925 19.9667 63.6725 20.18C64.1658 20.54 64.5058 20.96 64.6925 21.44C64.8792 21.9067 64.9725 22.4667 64.9725 23.12C64.9725 23.4 64.8125 23.6733 64.4925 23.94C64.1858 24.1933 63.8525 24.32 63.4925 24.32L62.7325 24.3C62.3458 24.3 61.7925 24.3133 61.0725 24.34L60.6525 24.36C60.3592 24.3867 60.1392 24.4 59.9925 24.4C59.7792 24.4 59.4858 24.3733 59.1125 24.32C59.1658 24.9467 59.3992 25.44 59.8125 25.8C60.2258 26.1467 60.6725 26.32 61.1525 26.32C61.9925 26.32 62.5792 26.1533 62.9125 25.82C63.1925 25.62 63.3792 25.4933 63.4725 25.44C63.5658 25.3867 63.7125 25.36 63.9125 25.36C64.1258 25.36 64.3125 25.46 64.4725 25.66C64.6325 25.86 64.7125 26.06 64.7125 26.26C64.7125 26.4867 64.5725 26.72 64.2925 26.96C64.0258 27.1867 63.6592 27.4267 63.1925 27.68C62.9392 27.7867 62.5925 27.88 62.1525 27.96C61.7125 28.04 61.3458 28.08 61.0525 28.08C60.5858 28.08 60.0658 27.9467 59.4925 27.68C58.9192 27.4 58.4925 27.0933 58.2125 26.76C57.9325 26.4267 57.6858 25.9533 57.4725 25.34C57.2725 24.7267 57.1725 24.0867 57.1725 23.42ZM61.1525 22.88C62.0992 22.88 62.7925 22.8467 63.2325 22.78C63.2058 22.3933 63.0858 22.08 62.8725 21.84C62.6592 21.5867 62.3658 21.3733 61.9925 21.2C61.8725 21.1467 61.7658 21.1067 61.6725 21.08C61.5792 21.0533 61.4725 21.04 61.3525 21.04C60.7392 21.04 60.2192 21.2067 59.7925 21.54C59.3792 21.8733 59.1325 22.3 59.0525 22.82C59.7192 22.86 60.4192 22.88 61.1525 22.88Z" fill="white"/>
<path d="M10.5243 26.4813H22.1269M47.6998 10.5348V7C47.6998 4.23858 45.4612 2 42.6998 2H6.99999C4.23857 2 2 4.23858 2 7V39C2 41.7614 4.23858 44 7 44H42.6998C45.4612 44 47.6998 41.7614 47.6998 39V35.2406M10.5243 10.5348H40.3594M10.5243 18.6203H22.1269M10.5243 35.2406H40.3594" stroke="white" stroke-width="4" stroke-linecap="round"/>
</svg>
